<?xml version="1.0" standalone="no"?>
<!DOCTYPE svg PUBLIC "-//W3C//DTD SVG 20010904//EN"
 "http://www.w3.org/TR/2001/REC-SVG-20010904/DTD/svg10.dtd">
<svg version="1.0" xmlns="http://www.w3.org/2000/svg"
 width="200.000000pt" height="200.000000pt" viewBox="0 0 200.000000 200.000000"
 preserveAspectRatio="xMidYMid meet">
<metadata>
Created by potrace 1.14, written by Peter Selinger 2001-2017
</metadata>
<g transform="translate(0.000000,200.000000) scale(0.100000,-0.100000)"
fill="#000000" stroke="none">
<path d="M915 1969 c-111 -14 -220 -45 -311 -88 -93 -44 -127 -67 -227 -154
-308 -269 -401 -747 -216 -1120 208 -421 692 -631 1133 -490 262 83 459 253
576 498 73 153 85 209 85 410 0 146 -3 181 -22 246 -81 279 -268 500 -523 617
-90 42 -159 60 -286 77 -120 16 -111 16 -209 4z m317 -103 c315 -80 566 -341
635 -660 21 -97 20 -281 -2 -375 -66 -283 -276 -525 -540 -621 -119 -44 -177
-54 -315 -54 -117 0 -147 4 -225 27 -164 49 -279 118 -396 238 -178 181 -271
449 -241 697 36 299 213 552 477 684 133 67 217 86 386 87 103 1 144 -3 221
-23z"/>
<path d="M945 1573 c-22 -9 -83 -42 -135 -73 -141 -85 -190 -109 -244 -119
-26 -5 -53 -14 -59 -20 -27 -27 3 -267 54 -444 61 -209 192 -389 370 -507 33
-22 69 -40 80 -40 50 0 232 144 301 238 128 173 210 427 220 681 3 73 -6 85
-76 94 -40 6 -158 62 -196 93 -8 6 -58 35 -111 63 -104 56 -137 61 -204 34z
m304 -349 c17 -14 31 -31 31 -36 0 -11 -166 -262 -237 -360 -19 -27 -43 -48
-53 -48 -21 0 -220 192 -220 212 0 18 52 68 71 68 8 0 41 -27 74 -60 67 -67
62 -68 119 20 79 123 158 230 171 230 7 0 27 -12 44 -26z"/>
</g>
</svg>
