<?xml version="1.0" encoding="UTF-8"?>
<svg version="1.1" viewBox="0 0 113.2 38.64" xmlns="http://www.w3.org/2000/svg">
<defs>
<style type="text/css">.cls-1{fill:#353549;}</style>
</defs>
<g data-name="Layer 2">
<g data-name="Layer 1">
<g data-name="Website logo">
<g data-name="Mobile logo">
<path class="cls-1" d="M48.67,28.9a.47.47,0,0,1-.46-.7l8.41-18.07a.55.55,0,0,1,.46-.3h.27a.55.55,0,0,1,.46.3L66.2,28.2a.47.47,0,0,1-.46.7h-3c-.48,0-.7-.16-.94-.67l-1-2.12h-7.3l-1,2.15a1,1,0,0,1-1,.64Zm6.5-6.45h4.08l-2-4.43h0ZM68.4,28.39V10.61a.53.53,0,0,1,.51-.51h3.22a.53.53,0,0,1,.51.51V28.39a.53.53,0,0,1-.51.51H68.92A.53.53,0,0,1,68.4,28.39Zm8.86,0V10.61a.51.51,0,0,1,.51-.51h8a5.84,5.84,0,0,1,5.85,5.8,5.89,5.89,0,0,1-4,5.4l3.68,6.82a.51.51,0,0,1-.46.78H87.34a.49.49,0,0,1-.43-.24l-3.57-7.12H81.48v6.85a.53.53,0,0,1-.51.51h-3.2A.51.51,0,0,1,77.27,28.39Zm4.22-10.26h4a2.15,2.15,0,0,0,2-2.15,2.06,2.06,0,0,0-2-2h-4Zm12.41,1.4a9.65,9.65,0,1,1,9.64,9.64A9.63,9.63,0,0,1,93.89,19.53Zm4.3,0a5.36,5.36,0,1,0,5.34-5.4A5.38,5.38,0,0,0,98.19,19.53Z"/>
</g>
<path class="cls-1" d="M19.32,38.64A19.2,19.2,0,0,1,8.58,35.38a.4.4,0,0,1-.1-.56l1.37-2a.4.4,0,0,1,.55-.1,16.14,16.14,0,0,0,17.83,0,.4.4,0,0,1,.55.1l1.37,2a.4.4,0,0,1-.1.56,19.2,19.2,0,0,1-10.73,3.25"/>
<path class="cls-1" d="M19.32,3.19h-.23A16.13,16.13,0,0,0,6,28.5a.2.2,0,0,0,.33,0l12.7-18.35a.4.4,0,0,1,.65,0l12.8,18a.2.2,0,0,0,.33,0A16.13,16.13,0,0,0,19.32,3.19ZM6.79,33.5a.4.4,0,0,1-.62,0l-1-1.09a19.32,19.32,0,1,1,28.69-.4l-1,1.13a.4.4,0,0,1-.62,0L19.6,15.45a.2.2,0,0,0-.33,0Z"/>
</g>
</g>
</g>
<style>.2bf16e946b3d1714fb75bf0a1302c77a{height:42px}</style>
</svg>
