<?xml version="1.0" encoding="UTF-8"?>
<svg enable-background="new 0 0 182 71.9" version="1.1" viewBox="0 0 182 71.9" xml:space="preserve" xmlns="http://www.w3.org/2000/svg" xmlns:xlink="http://www.w3.org/1999/xlink">
<style type="text/css">
	.st0{clip-path:url(#a);fill:#0094A1;}
	.st1{clip-path:url(#a);fill:#FFFFFF;}
</style>
	<defs><rect id="b" width="182" height="71.9"/></defs>
	<clipPath id="a">
		<use xlink:href="#b"/>
	</clipPath>
	<path class="st0" d="m175 2.8v-0.2c0-0.1-0.1-0.1-0.2-0.2-0.1 0-0.2-0.1-0.2-0.1h-0.6v1h0.6c0.1 0 0.2-0.1 0.3-0.1s0.1-0.1 0.1-0.2v-0.2m1.6 2.6h-1.2l-1.1-1.3h-0.3v1.3h-0.9v-3.6h2c0.2 0 0.3 0.1 0.5 0.2s0.3 0.2 0.4 0.3 0.1 0.3 0.1 0.5c0 0.3-0.1 0.5-0.2 0.7s-0.3 0.3-0.6 0.4l1.3 1.5zm0.8-1.7c0-0.8-0.3-1.5-0.8-2-0.6-0.6-1.2-0.9-2-0.9s-1.5 0.3-2 0.9c-0.6 0.6-0.8 1.2-0.8 2s0.3 1.5 0.8 2c0.6 0.6 1.2 0.9 2 0.9s1.5-0.3 2-0.9 0.8-1.2 0.8-2m0.8 0c0 1-0.4 1.9-1.1 2.6s-1.6 1.1-2.6 1.1-1.9-0.4-2.6-1.1-1.1-1.6-1.1-2.6 0.4-1.9 1.1-2.6 1.6-1.1 2.6-1.1 1.9 0.4 2.6 1.1c0.8 0.7 1.1 1.6 1.1 2.6" clip-path="url(#a)"/>
	<path class="st0" d="m25.1 3.7c-9 0-16.7 4.7-20.8 11.3-3.5 6.2-4.3 16.2-4.3 22.8s0.8 16.7 4.3 22.8c4 6.6 11.7 11.3 20.8 11.3h131.8c9 0 16.7-4.7 20.8-11.3 3.5-6.1 4.3-16.2 4.3-22.8s-0.8-16.7-4.3-22.8c-4-6.6-11.7-11.3-20.8-11.3h-131.8z" clip-path="url(#a)"/>
	<path class="st1" d="m112.8 34.1h11.1v-0.3c0-5.1-2-5.4-5.7-5.4-4.5-0.1-5.3 1.3-5.4 5.7m-77.9-5.5c3.6 0 5.6 0.4 5.6 5.3v0.2h-10.9c0.1-4.2 1-5.5 5.3-5.5m-15.4 9.4c0 11.9 3 16.2 15.6 16.2 4.7 0 8.5-0.4 11.3-1.9 2.6-1.5 4.2-4.1 4.2-8.8h-9.9c-0.1 3.4-2.4 3.8-5.6 3.8-4.6 0-5.5-1.9-5.5-7.6v-0.2h21v-1.5c0-13-3.5-16.3-15.5-16.3-12.8 0-15.6 4-15.6 16.3m37.8-5.9c0 6.4 2.2 9.3 15.6 9.3 1.2 0 3.1-0.1 4.2 0.4 1 0.5 1.5 1.4 1.5 3 0 2.8-1 3.1-5.8 3.1-2.6 0-5.3-0.1-5.5-3.6h-10c0.1 7 3.4 9.3 9.6 9.8 1.9 0.1 3.9 0.1 6 0.1 8.5 0 15.6-1.4 15.6-10.6 0-8.8-4.6-9.4-15.6-9.7-5.5-0.1-5.8-1.3-5.8-3.1 0-2.1 0.2-2.8 5.8-2.8 2 0 4.1 0.2 4.5 2.7h9.5v-1.3c0-7.6-8-7.7-14-7.7-9.1 0-15.6 0.2-15.6 10.4m82.8-10.4h24.8v7.3h-7.4v24.9h-10.1v-24.9h-7.4v-7.3zm-37.2 16.1c0-12.3 2.7-16.2 15.5-16.2 11.9 0 15.4 3.2 15.4 16.2v1.4h-21v0.3c0 5.7 0.9 7.7 5.6 7.7 3.1 0 5.5-0.3 5.7-3.8h9.7c-0.1 4.5-1.6 7.1-4.2 8.6-2.7 1.5-6.5 1.9-11.2 1.9-12.5 0-15.5-4.2-15.5-16.1m-90.7 22.1c-5.1-5.5-6.2-14-6.2-22.1s1.1-16.6 6.2-22.1c3.2-3.4 9.4-6 14.6-6h67.9v56.2h-67.9c-5.3 0-11.4-2.6-14.6-6" clip-path="url(#a)"/>
<style>.2bf16e946b3d1714fb75bf0a1302c77a{height:82px}</style>
</svg>
