<?xml version="1.0" encoding="UTF-8"?>
<svg version="1.1" viewBox="0 0 160 60" xmlns="http://www.w3.org/2000/svg">
<defs>
<linearGradient id="a" x1="18.66" x2="18.66" y1="-469.34" y2="-506.66" gradientTransform="matrix(1 0 0 -1 0 -458)" gradientUnits="userSpaceOnUse">
<stop stop-color="#1ac9ff" offset="0"/>
<stop stop-color="#0d99ff" offset="1"/>
</linearGradient>
</defs>
<path d="m63.6 29.1v7.3h-2.6v-6.4c0-2-1-3.1-2.7-3.1a2.9 2.9 0 0 0-3 3.1v6.4h-2.5v-6.4c0-2-1-3.1-2.7-3.1a2.9 2.9 0 0 0-3 3.1v6.4h-2.6v-11.6h2.5v1.4a4.1 4.1 0 0 1 3.6-1.7 4.5 4.5 0 0 1 4 2.1 4.7 4.7 0 0 1 4.3-2.1 4.5 4.5 0 0 1 4.7 4.6zm13.6 7.3h-2.6v-1.4a4.2 4.2 0 0 1-3.6 1.7 5.8 5.8 0 0 1-5.8-6.1 5.8 5.8 0 0 1 5.8-6.1 4.5 4.5 0 0 1 3.6 1.7v-1.4h2.6zm-9.4-5.8a3.5 3.5 0 1 0 7 0 3.5 3.5 0 1 0-7 0zm21.5-4.2-1.6 1.7a3.8 3.8 0 0 0-2.8-1.2 3.4 3.4 0 0 0-3.4 3.7 3.4 3.4 0 0 0 3.4 3.7 4 4 0 0 0 2.8-1.2l1.6 1.8a5.7 5.7 0 0 1-4.3 1.8 5.9 5.9 0 0 1-6.2-6.1 5.9 5.9 0 0 1 6.2-6.1 5.3 5.3 0 0 1 4.3 1.9z" fill="#0d86ff"/>
<path d="M93.1 29.2h1.3l3.8-4.4h3.2l-4.9 5.5 5 6.1h-3.3l-3.8-4.9h-1.3v4.9h-2.5v-17.7h2.5zm19.2 1.4v.9h-8.6a3.3 3.3 0 0 0 3.4 3 6.1 6.1 0 0 0 3.4-1.2l1.2 1.8a6.9 6.9 0 0 1-4.7 1.6 5.7 5.7 0 0 1-6-6.1c0-3.6 2.4-6.1 5.8-6.1s5.5 2.5 5.5 6.1zm-8.6-1h6c-.3-1.8-1.3-2.8-2.9-2.8a2.9 2.9 0 0 0-3.1 2.8zm20.8 1v.9h-8.6a3.3 3.3 0 0 0 3.5 3 5.8 5.8 0 0 0 3.3-1.2l1.3 1.8a7 7 0 0 1-4.8 1.6c-3.5 0-5.9-2.4-5.9-6.1s2.3-6.1 5.7-6.1 5.5 2.5 5.5 6.1zm-8.6-1h6a2.8 2.8 0 0 0-2.9-2.8 3 3 0 0 0-3.1 2.8zm22.3 1a5.8 5.8 0 0 1-5.8 6.1 4.2 4.2 0 0 1-3.6-1.7v6.3h-2.6v-16.5h2.6v1.4a4.5 4.5 0 0 1 3.6-1.7 5.8 5.8 0 0 1 5.8 6.1zm-9.6 0a3.5 3.5 0 1 0 7 0 3.5 3.5 0 1 0-7 0zm21.9 0c0 .3-.1.7-.1.9h-8.6a3.4 3.4 0 0 0 3.5 3 5.5 5.5 0 0 0 3.3-1.2l1.3 1.8a7 7 0 0 1-4.8 1.6c-3.5 0-5.9-2.4-5.9-6.1s2.4-6.1 5.8-6.1 5.5 2.5 5.5 6.1zm-8.7-1h6.1a3 3 0 0 0-3-2.8 3 3 0 0 0-3.1 2.8zm18.2-4.8l-.6 2.5a5.8 5.8 0 0 0-1.9-.4 2.8 2.8 0 0 0-2.8 3.1v6.4h-2.5v-11.6h2.5v1.3a3.7 3.7 0 0 1 3.3-1.6 6 6 0 0 1 2 .3z" fill="#2f3040"/>
<path d="m23.3 48.7h-9.3a14 14 0 0 1-14-14v-9.4a14 14 0 0 1 14-14h9.3a14 14 0 0 1 14 14v9.4a14 14 0 0 1-14 14z" fill="url(#a)"/>
<path d="M21.1 17.1v5.2a4.5 4.5 0 0 1 2.6 1.9c0 .1.1 0 .1 0v-7.1zm-10.2 23.6a1.3 1.3 0 0 1-.5-1.7 1.4 1.4 0 0 1 1.8-.5 12.3 12.3 0 0 0 6.5 2 14 14 0 0 0 6.6-2 1.3 1.3 0 0 1 1.7.5 1.2 1.2 0 0 1-.4 1.7 16.7 16.7 0 0 1-7.2 2.2h-1.6a14.7 14.7 0 0 1-6.9-2.2zm12.8-12.8h1.6l3.8-4.4h3.1l-4.7 5.5 4.8 6h-3.2l-3.8-4.8h-1.6v4.8h-2.5v-6.3c0-1.9-.9-3-2.6-3a2.9 2.9 0 0 0-3 3v6.3h-2.5v-6.3c0-1.9-1-3-2.6-3a2.9 2.9 0 0 0-3 3v6.3h-2.5v-11.4h2.5v1.4a4.1 4.1 0 0 1 3.5-1.7 4.3 4.3 0 0 1 3.9 2.1 4.6 4.6 0 0 1 4.2-2.1 4.4 4.4 0 0 1 4.6 4.6z" fill="#fff"/>
<style>.2bf16e946b3d1714fb75bf0a1302c77a{height:89px}</style>
</svg>
