<?xml version="1.0" encoding="UTF-8"?>
<svg version="1.1" viewBox="0 0 113.64 22.648" xmlns="http://www.w3.org/2000/svg">
<g transform="translate(298.46 -232.33)">
<g transform="translate(.26458 -.26458)">
<path class="st0" d="m-241.97 247.23-2.9633-1.7462-0.21167 0.34396c-0.66146 1.0583-1.5875 1.5875-2.7252 1.5875-1.9579 0-3.4131-1.4817-3.4131-3.4131 0-1.9579 1.4817-3.4131 3.4131-3.4131 1.1642 0 2.0108 0.50271 2.7252 1.5875l0.21167 0.34396 2.9633-1.7462-0.26458-0.37042c-1.4288-2.0638-3.2544-3.0427-5.6621-3.0427-4.5244 0-6.9585 3.4396-6.9585 6.6675s2.4342 6.6675 6.9585 6.6675c2.3019 0 4.4715-1.1642 5.6621-3.0692z" fill="#c01818" stroke-width=".26458"/>
<path class="st0" d="m-242.13 250.64h4.0746l1.2171-3.0162h6.1119l1.2171 3.0162h4.101l-7.3025-17.648h-3.6512l0.97896 2.3548-6.7469 15.293m8.3873-10.689 1.6404 4.154h-3.3338z" fill="#c01818" stroke-width=".26458"/>
<path class="st0" d="m-223.71 250.67h3.5719v-7.9375h2.3283v-3.3338h-2.3283v-1.561c0-0.68792 0.44979-1.4023 1.2964-1.4023 0.4498 0 0.74084 0.0794 1.0054 0.18521l0.39688 0.15875 1.4817-3.2544-0.39687-0.13229c-0.66146-0.26459-1.5875-0.37042-2.249-0.37042-1.614 0-2.9633 0.52917-3.8629 1.5346-0.79375 0.87313-1.2435 2.0902-1.2435 3.4396v1.4288h-1.5875v3.3338h1.5875z" fill="#c01818" stroke-width=".26458"/>
<polygon class="st0" transform="matrix(.26458 0 0 .26458 -298.46 232.86)" points="144.3 28.8 144.3 67.2 159 67.2 159 0.1 130.1 21.9 101.1 0.1 101.1 67.1 115.8 67.2 115.8 28.8 130.1 39.4" fill="#c01818"/>
<path class="st0" d="m-209.74 237.36c-4.4979 0-6.9321 3.4131-6.9321 6.641s2.4342 6.641 6.9321 6.641c2.0638-0.0265 3.9952-0.9525 5.5033-2.6723l-2.9104-1.5875c-0.74084 0.76729-1.6669 1.1642-2.6723 1.1642-1.4817 0-2.7781-0.97895-3.1221-2.2754h9.7367v-0.87313c0.0265-4.8419-3.81-7.0115-6.5352-7.0379zm-3.1221 5.0271c0.47625-1.2171 1.4817-1.905 2.7781-1.905 1.3229 0 2.3548 0.68792 2.884 1.9315z" fill="#c01818" stroke-width=".26458"/>
<path class="st0" d="m-195.11 237.39c-4.4979 0-6.9321 3.4131-6.9321 6.641s2.4342 6.641 6.9321 6.641c2.0638-0.0265 3.9952-0.9525 5.5033-2.6723l-2.9104-1.5875c-0.74084 0.76729-1.6669 1.1642-2.6723 1.1642-1.4817 0-2.7781-0.97896-3.1221-2.2754h9.7367v-0.87313c0.0265-4.8419-3.81-7.0379-6.5352-7.0379zm-3.1221 5.0006c0.47625-1.2171 1.4817-1.9315 2.7781-1.905 1.3229 0 2.3548 0.68792 2.884 1.9315z" fill="#c01818" stroke-width=".26458"/>
<path class="st0" d="m-189.03 236.78h1.5081v0.29104h-0.60854v1.5875h-0.3175v-1.5875h-0.58208z" fill="#c01818" stroke-width=".26458"/>
<path class="st0" d="m-187.28 236.78h0.44979l0.52916 1.4552 0.50271-1.4552h0.44979v1.8785h-0.3175v-1.4552l-0.52916 1.4552h-0.26459l-0.52916-1.4552v1.4552h-0.3175v-1.8785z" fill="#c01818" stroke-width=".26458"/>
<polygon class="st0" transform="matrix(.26458 0 0 .26458 -298.46 232.86)" points="36.3 16.8 0 0 0 66.8 36.3 83.6 36.3 67.2 14.9 57.3 14.9 23.3 36.3 33.2" fill="#c01818"/>
<polygon class="st1" transform="matrix(.26458 0 0 .26458 -298.46 232.86)" points="36.3 16.8 72.7 0 72.7 66.8 36.3 83.6 36.3 67.2 57.8 57.3 57.8 23.3 36.3 33.2" fill="#75160d"/>
</g>
</g>
<style type="text/css">.st0{fill:#C01818;}
	.st1{fill:#75160D;}</style>
<style>.2bf16e946b3d1714fb75bf0a1302c77a{height:20px}</style>
</svg>
