<?xml version="1.0" encoding="UTF-8"?>
<svg enable-background="new 0 0 204 36.333" version="1.1" viewBox="0 0 204 36.333" xml:space="preserve" xmlns="http://www.w3.org/2000/svg"><path d="m3.585 28.822h15.068c2.626 0 4.064-0.248 4.907-0.793 1.041-0.646 1.636-1.733 1.636-3.022 0-1.537-0.794-2.876-2.131-3.521-0.693-0.396-1.984-0.595-3.57-0.595h-6.097c-3.964 0-6.542-0.694-8.276-2.181-1.983-1.736-3.122-4.412-3.122-7.286 0-4.213 2.329-7.881 5.749-9.071 1.487-0.546 3.221-0.693 7.088-0.693h16.356v5.898h-14.771c-3.123 0.049-3.371 0.049-4.411 0.297-1.387 0.346-2.23 1.635-2.23 3.369 0 1.489 0.693 2.678 1.884 3.223 0.991 0.447 1.784 0.545 4.164 0.545h5.303c4.858 0 7.484 0.744 9.418 2.727 1.487 1.486 2.479 4.412 2.479 7.288 0 3.519-1.636 6.789-4.213 8.376-1.635 1.04-3.716 1.337-8.625 1.337h-16.606v-5.898z" fill="#007aff"/><path d="m51.912 1.41c-4.659 0-8.724 1.141-11.301 3.223-3.271 2.578-5.005 7.387-5.005 13.732 0 4.41 0.939 8.031 2.874 10.756 2.577 3.719 7.585 5.802 13.929 5.802 4.461 0 8.229-1.093 10.708-3.075 3.271-2.625 5.108-7.388 5.108-13.188l-0.015-0.946-0.04-0.931-0.066-0.906-0.089-0.889-0.116-0.867-0.144-0.84-0.165-0.813-0.191-0.787-0.104-0.384-0.111-0.375-0.116-0.371-0.121-0.357-0.125-0.356-0.134-0.345-0.14-0.334-0.146-0.332-0.147-0.316-0.155-0.312-0.161-0.303-0.166-0.291-0.174-0.285-0.175-0.277-0.183-0.264-0.188-0.254c-2.53-3.279-7.242-5.115-13.141-5.115zm0.048 5.599c5.899 0 8.526 3.473 8.526 11.204 0 7.634-2.677 11.153-8.526 11.153-5.947 0-8.625-3.521-8.625-11.252l4e-3 -0.326 4e-3 -0.322 5e-3 -0.316 0.013-0.312 0.014-0.305 0.014-0.303 0.018-0.295 0.022-0.291 0.026-0.287 0.027-0.277 0.031-0.271 0.035-0.268 0.036-0.264 0.04-0.26 0.09-0.5 0.05-0.24 0.108-0.464 0.059-0.224 0.062-0.22 0.062-0.215 0.066-0.205 0.072-0.201 0.076-0.196 0.076-0.192 0.081-0.183 0.085-0.183 0.084-0.174 0.089-0.166 0.094-0.162 0.094-0.155c1.339-2.134 3.867-3.328 7.088-3.328z" fill="#007aff"/><path d="m71.99 1.66v33.062h7.034v-11.554h11.306c3.767 0 5.546-0.492 7.48-2.128 2.28-1.932 3.669-5.154 3.669-8.625 0-2.924-1.04-5.652-2.973-7.734-2.18-2.429-4.215-3.021-10.014-3.021h-16.502zm7.034 5.899h9.715c1.14 0 2.033 0.097 2.578 0.296 1.538 0.545 2.431 2.131 2.431 4.311 0 1.835-0.547 3.422-1.438 4.166l-0.071 0.062-0.072 0.061-0.076 0.059-0.075 0.059-0.081 0.053-0.08 0.05-0.085 0.049-0.089 0.046-0.09 0.043-0.094 0.045-0.094 0.037-0.098 0.039-0.104 0.036-0.103 0.029-0.107 0.032-0.112 0.031-0.115 0.025-0.116 0.021-0.121 0.022-0.125 0.022-0.129 0.018-0.13 0.018-0.139 0.014-0.139 0.018-0.143 0.01-0.152 9e-3 -0.152 0.01-0.156 9e-3 -0.162 3e-3 -0.166 5e-3h-0.17l-0.175 4e-3h-9.567v-9.712h2e-3z" fill="#007aff"/><polygon points="131.57 34.718 124.53 34.718 124.53 21.089 111.79 21.089 111.79 34.718 104.75 34.718 104.75 1.66 111.79 1.66 111.79 15.191 124.53 15.191 124.53 1.66 131.57 1.66" fill="#007aff"/><path d="m152.09 1.41c-4.658 0-8.723 1.141-11.301 3.223-3.271 2.578-5.01 7.387-5.01 13.732 0 4.41 0.943 8.031 2.879 10.756 2.574 3.719 7.582 5.802 13.928 5.802 4.463 0 8.227-1.093 10.703-3.075 3.271-2.625 5.107-7.388 5.107-13.188l-0.014-0.946-0.039-0.931-0.066-0.906-0.09-0.889-0.117-0.867-0.143-0.84-0.166-0.813-0.188-0.787-0.107-0.384-0.107-0.375-0.115-0.371-0.125-0.357-0.125-0.356-0.135-0.345-0.139-0.334-0.143-0.332-0.152-0.316-0.156-0.312-0.16-0.303-0.166-0.291-0.174-0.285-0.174-0.277-0.186-0.264-0.188-0.254c-2.526-3.279-7.231-5.115-13.131-5.115zm0.051 5.599c5.896 0 8.525 3.473 8.525 11.204 0 7.634-2.678 11.153-8.525 11.153-5.947 0-8.625-3.521-8.625-11.252v-0.326l4e-3 -0.322 0.01-0.316 8e-3 -0.312 0.014-0.305 0.02-0.303 0.018-0.295 0.021-0.291 0.021-0.287 0.027-0.277 0.035-0.271 0.031-0.268 0.035-0.264 0.041-0.26 0.043-0.25 0.047-0.25 0.049-0.24 0.053-0.232 0.055-0.232 0.059-0.224 0.062-0.22 0.062-0.215 0.07-0.205 0.07-0.201 0.072-0.196 0.076-0.192 0.08-0.183 0.086-0.183 0.084-0.174 0.09-0.166 0.094-0.162 0.1-0.155c1.336-2.134 3.865-3.328 7.088-3.328z" fill="#007aff"/><path d="m172.56 28.822h15.068c2.625 0 4.062-0.248 4.906-0.793 1.039-0.646 1.635-1.733 1.635-3.022 0-1.537-0.793-2.876-2.131-3.521-0.695-0.396-1.982-0.595-3.568-0.595h-6.098c-3.965 0-6.543-0.694-8.277-2.181-1.982-1.736-3.123-4.412-3.123-7.286 0-4.213 2.328-7.881 5.75-9.071 1.486-0.546 3.223-0.693 7.088-0.693h16.357v5.898h-14.771c-3.123 0.049-3.371 0.049-4.41 0.297-1.389 0.346-2.232 1.635-2.232 3.369 0 1.489 0.695 2.678 1.887 3.223 0.988 0.447 1.781 0.545 4.162 0.545h5.303c4.857 0 7.484 0.744 9.42 2.727 1.485 1.486 2.475 4.411 2.475 7.287 0 3.519-1.635 6.789-4.213 8.376-1.635 1.04-3.717 1.337-8.625 1.337h-16.604v-5.897h1e-3z" fill="#007aff"/><style>.2bf16e946b3d1714fb75bf0a1302c77a{height:56px}</style>
</svg>
