<?xml version="1.0" encoding="UTF-8"?>
<svg width="6751.6" height="702.4" version="1.1" viewBox="0 0 1786.4 185.84" xmlns="http://www.w3.org/2000/svg">
<g transform="translate(1080.1 2.6595)">
<g transform="translate(.52917 -.52912)" fill="#408740">
<path class="st0" d="m686.87 17.74c-0.82021 0.3175-2.1167 0.47625-3.7306 0.47625h-3.4925v-8.0433h3.3338c2.1696 0 3.7306 0.26458 4.736 0.84667 0.9525 0.50271 1.4552 1.614 1.4552 3.2279 0 1.6933-0.71438 2.884-2.3019 3.4925m5.8208 10.504c-0.0794-0.58208-0.0794-1.1112-0.0794-1.6404v-1.614c0-1.1112-0.39687-2.249-1.2171-3.4396-0.76729-1.1642-2.0638-1.8785-3.8365-2.1696 1.4023-0.23812 2.4606-0.55562 3.2544-1.0848 1.4023-0.92604 2.1431-2.3812 2.1431-4.3656 0-2.8046-1.1112-4.6831-3.3867-5.6356-1.2965-0.50271-3.3338-0.79375-6.059-0.79375h-7.7523v22.172h3.8894v-8.6783h3.0692c2.0638 0 3.4925 0.23812 4.3656 0.68792 1.4023 0.84667 2.0638 2.5135 2.0638 5.08v1.7727l0.0794 0.68792c0.0794 0.10583 0.0794 0.18521 0.0794 0.23812 0.0794 0.10583 0.0794 0.15875 0.0794 0.23812h3.6777l-0.15875-0.29104c-0.13229-0.18521-0.18521-0.58208-0.21166-1.1642" stroke-width=".26458"/>
<path class="st0" d="m697.21 30.916c-3.4131 3.4131-7.4612 5.1329-12.303 5.1329-4.8419 0-8.9165-1.7198-12.277-5.1329-3.3338-3.4131-5.0535-7.5142-5.0535-12.382 0-4.789 1.6933-8.89 5.08-12.277 3.3602-3.4131 7.4877-5.1329 12.25-5.1329 4.8419 0 8.89 1.6933 12.303 5.1329 3.3602 3.3867 5.0535 7.4877 5.0535 12.277 0.0265 4.8948-1.6933 8.9958-5.0535 12.382m-12.303-32.517c-5.5298 0-10.292 1.9844-14.208 5.8737-3.9423 3.9688-5.9531 8.6783-5.9531 14.261 0 5.6092 1.9579 10.372 5.8738 14.314 3.9158 3.9688 8.7048 5.9531 14.288 5.9531 5.6092 0 10.345-1.9844 14.314-5.9531 3.9423-3.9423 5.9531-8.7312 5.9531-14.314s-1.9844-10.345-5.9531-14.261c-3.9688-3.8894-8.7048-5.8737-14.314-5.8737" stroke-width=".26458"/>
<path class="st0" d="m354.05 129.84c-0.52916 6.641-3.7042 10.769-10.081 11.536-10.107 1.2435-32.2 2.196-47.387 2.196-15.214 0-37.571-0.9525-47.678-2.196-6.35-0.71437-9.6044-4.8948-10.054-11.536-0.23812-4.4185-0.74083-26.485-0.74083-39.052 0-12.515 0.50271-34.634 0.74083-39.079 0.47625-6.5881 3.7042-10.769 10.054-11.509 10.107-1.2171 32.464-2.196 47.678-2.196 15.187 0 37.28 0.97896 47.387 2.196 6.3765 0.74083 9.5515 4.9212 10.081 11.509 0.21167 4.445 0.71438 26.564 0.71438 39.079 0 12.568-0.50271 34.634-0.71438 39.052m16.378-127.69c-22.569-2.4342-51.038-3.6777-73.872-3.6777-22.86 0-51.62 1.2435-74.189 3.6777-16.219 1.7462-27.279 16.192-28.496 31.221-0.71437 9.5779-1.27 47.89-1.27 57.441 0 9.5779 0.55563 47.916 1.27 57.494 1.2171 15.002 12.277 29.713 28.496 31.459 22.569 2.4606 51.356 3.4131 74.189 3.4131 22.807 0 51.303-0.9525 73.872-3.4131 16.245-1.7462 27.305-16.431 28.496-31.459 0.79375-9.5515 1.2171-47.916 1.2171-57.494 0-9.5515-0.44979-47.837-1.2171-57.441-1.1906-15.002-12.25-29.475-28.496-31.221" stroke-width=".26458"/>
<path class="st0" d="m112.98 129.84c-0.44979 6.641-3.6512 10.821-10.107 11.536-10.001 1.2435-32.12 2.196-47.334 2.196-15.24 0-37.597-0.9525-47.678-2.196-6.35-0.71437-9.5779-4.8948-10.081-11.536-0.26458-4.4185-0.71438-26.485-0.71438-39.026 0-12.515 0.44979-34.634 0.71438-39.079 0.50271-6.5881 3.7042-10.769 10.081-11.509 10.054-1.2171 32.438-2.196 47.678-2.196 15.214 0 37.306 0.97896 47.334 2.196 6.4558 0.74083 9.6573 4.9212 10.107 11.509 0.29104 4.445 0.76729 26.564 0.76729 39.079 0 12.541-0.47625 34.608-0.76729 39.026m16.484-127.69c-22.595-2.4342-51.117-3.6777-73.925-3.6777-22.913 0-51.62 1.2435-74.189 3.6777-16.219 1.7462-27.252 16.219-28.469 31.221-0.71438 9.5779-1.2435 47.89-1.2435 57.441 0 9.5779 0.52917 47.916 1.2435 57.468 1.2171 15.002 12.25 29.713 28.469 31.459 22.595 2.4606 51.303 3.4131 74.189 3.4131 22.807 0 51.303-0.9525 73.925-3.4131 16.245-1.7462 27.279-16.431 28.496-31.459 0.71437-9.5515 1.2171-47.916 1.2171-57.494 0-9.5515-0.50271-47.837-1.2171-57.441-1.2171-14.975-12.25-29.448-28.496-31.194" stroke-width=".26458"/>
<path class="st0" d="m-132.6 66.608c-0.44979 6.6146-3.6512 10.821-10.028 11.562-10.081 1.2171-32.173 2.196-47.413 2.196-15.187 0-39.502-1.2435-48.392-1.9315-1.2171-0.23812-7.5935-1.0054-10.054-1.2435v-35.983c2.1431-0.23812 9.3398-0.97896 14.023-1.4552 9.4985-1.0319 28.892-1.7198 44.397-1.7198 15.24 0 37.333 0.97896 47.413 2.196 6.3764 0.74083 9.5514 4.9212 10.028 11.509 0.26459 3.466 0.21167 3.0162 0.21167 6.5352 0.0529 6.4029 0.10583 4.8948-0.18521 8.3344m3.0692 50.297v-0.0265c4.6831-0.39688 9.2869-0.79375 13.6-1.2435 10.557-1.1377 18.812-7.7258 23.654-16.272 2.6458-5.371 4.2069-11.351 4.6302-17.013 0.50271-6.641 1.0054-5.7679 1.0054-15.346 0-12.806-0.50271-27.04-1.0054-33.629-1.2435-15.002-12.25-29.475-28.496-31.221-22.516-2.4342-51.065-3.6777-73.898-3.6777-22.86 0-50.377 0.9525-71.49 2.9633-14.737 1.4817-32.411 3.4131-32.411 3.4131v176.85h45.455v-64.241h0.23813v-0.0265c17.489 1.0583 41.46 1.8785 58.288 1.8785 3.9688 0 8.0962-0.0264 12.356-0.15875l40.746 62.706h51.488l-35.507-52.07c0.0529-0.0264-8.7048-12.859-8.6519-12.885" stroke-width=".26458"/>
<path class="st0" d="m-388.61 71.424c-9.3662 0.97896-28.019 1.9844-43.233 1.9844h-63.659v-32.702c2.249-0.23812 9.3927-0.74083 14.049-1.2435 9.525-0.9525 31.644-1.9315 47.122-1.9315 15.214 0 36.883 1.1906 46.196 2.2225 7.8581 0.9525 9.7896 7.329 9.7896 15.928 0.0265 8.6254-2.3812 14.79-10.266 15.743m0.50271 70.75c-9.3133 0.97896-30.983 1.9844-46.196 1.9844-15.478 0-37.571-0.76729-47.122-1.7198-4.6831-0.52917-11.8-1.2436-14.049-1.5081v-32.676h63.659c15.214 0 33.867 0.74083 43.233 1.7462 7.8846 0.9525 10.266 7.6465 10.266 16.219s-1.9314 14.949-9.7896 15.954m54.98-95.276c0-19.182-5.3446-42.28-28.998-44.715-22.278-2.4606-49.821-3.7042-72.178-3.7042-22.834 0-53.022 0.9525-74.189 2.9633-14.658 1.4817-32.385 3.4131-32.385 3.4131v171.9c2.4871 0.26459 18.891 2.2225 32.411 3.4396 21.167 2.0108 51.356 2.9369 74.189 2.9369 22.357 0 49.9-0.9525 72.205-3.4131 23.654-2.4871 28.998-25.77 28.998-44.953 0-14.764-2.9633-33.629-15.452-41.513-1.2171-0.71438-3.9423-1.6933-4.9212-2.4606 0.97896-0.74083 3.7042-2.2225 4.9212-2.9369 12.462-7.8581 15.399-26.273 15.399-40.958" stroke-width=".26458"/>
<path class="st0" d="m-725.19 39.753c10.028-1.2435 32.385-2.2225 47.625-2.2225 22.093 0 55.51 0.26458 77.867 1.4552 3.1485 0.18521 14.235 1.5081 18.627 2.196l2.9633-38.788c-4.6831-0.71438-17.436-2.2225-20.902-2.4077-22.066-1.4287-56.224-1.5081-78.555-1.5081-22.834 0-51.594 1.2435-74.163 3.6777-16.219 1.7462-27.279 16.219-28.496 31.194-0.74084 9.5515-1.2171 47.89-1.2171 57.441 0 9.5779 0.50271 47.916 1.2171 57.467 1.2171 15.002 12.277 29.713 28.496 31.459 22.569 2.4871 51.329 3.4131 74.163 3.4131 22.331 0 56.674-0.0265 78.555-1.3229 3.466-0.18521 16.219-1.9315 20.902-2.6988l-2.9633-38.814c-4.3921 0.74083-15.505 2.2225-18.627 2.4342-22.251 1.8785-55.774 1.3494-77.867 1.3494-15.24 0-37.571-0.97896-47.625-2.249-6.4294-0.71437-9.6308-4.9212-10.107-11.536-0.23813-2.9369-0.47625-13.018-0.47625-21.378h104.46v-36.513h-104.46c0-8.3608 0.23812-18.203 0.47625-21.14 0.47625-6.641 3.6777-10.795 10.107-11.509" stroke-width=".26458"/>
<polygon class="st0" transform="matrix(.26458 0 0 .26458 -1080.1 -1.6012)" points="6540.8 155.2 6540.8 5.8 5682.9 5.8 5682.9 155.2 6026.3 155.2 6026.3 692.8 6198.1 692.8 6198.1 155.2"/>
<path class="st0" d="m-808-0.25181v0.079375h-45.402c-1.2171 5.8737-15.69 56.753-17.304 62.309-1.561 5.6092-10.53 33.285-12.541 38.761-0.26459 0.60855-3.2544 8.3079-3.5719 8.89l-40.322-88.926h-33.47l-40.323 88.874c-0.291-0.58209-3.3337-8.2815-3.5718-8.89-2.0109-5.4769-11.033-33.152-12.594-38.761-1.5611-5.5562-16.087-56.409-17.277-62.309h-45.455v-0.026458h-0.2911l0.026 0.052917h-0.026l0.6615 2.1431v0.026458c1.8785 9.4456 27.146 93.53 29.713 102.76 2.6458 9.2075 18.283 55.88 21.59 64.849 0.344 0.92604 0.7408 1.7992 1.1642 2.6723l0.026 0.0794c2.8575 8.7048 9.525 10.001 18.203 10.504l1.0848 0.0265c8.7841 0 14.473-1.7727 17.833-7.6465l45.985-101.52 45.985 101.52c3.3338 5.8738 9.0752 7.6465 17.806 7.6465l1.1112-0.0265c8.7048-0.50271 15.346-1.7992 18.177-10.504l0.0529-0.0794c0.39687-0.87313 0.82021-1.7462 1.1112-2.6723 3.3073-8.9694 18.997-55.615 21.616-64.849 2.6194-9.234 27.834-93.345 29.766-102.74v-0.026458l0.66146-2.1431h-0.0794l0.0794-0.079375z" stroke-width=".26458"/>
</g>
</g>
<style type="text/css">.st0{fill:#408740;}</style>
<style>.2bf16e946b3d1714fb75bf0a1302c77a{height:11px}</style>
</svg>
